<?xml version="1.0" standalone="no"?>
<!DOCTYPE svg PUBLIC "-//W3C//DTD SVG 20010904//EN"
 "http://www.w3.org/TR/2001/REC-SVG-20010904/DTD/svg10.dtd">
<svg version="1.0" xmlns="http://www.w3.org/2000/svg"
 width="360.000000pt" height="360.000000pt" viewBox="0 0 360.000000 360.000000"
 preserveAspectRatio="xMidYMid meet">
<metadata>
Created by potrace 1.14, written by Peter Selinger 2001-2017
</metadata>
<g transform="translate(0.000000,360.000000) scale(0.100000,-0.100000)"
fill="#000000" stroke="none">
<path d="M1133 3571 c-153 -53 -262 -203 -263 -363 l0 -37 -384 -3 c-370 -3
-386 -4 -412 -24 -15 -11 -37 -33 -48 -48 -21 -27 -21 -38 -21 -501 0 -463 0
-474 21 -501 11 -15 33 -37 48 -48 26 -20 42 -21 412 -24 l384 -3 0 -832 c0
-512 4 -848 10 -875 27 -114 113 -221 217 -270 l58 -27 1080 0 1080 0 66 32
c80 39 150 111 187 191 l27 57 3 1195 2 1195 -452 452 -453 453 -755 0 c-700
-1 -759 -2 -807 -19z m1479 -503 c3 -326 3 -322 75 -394 74 -74 93 -78 401
-75 l272 2 2 -853 c5 -1515 6 -1403 -18 -1434 -11 -15 -33 -37 -48 -48 -27
-21 -35 -21 -1049 -24 -1141 -2 -1065 -7 -1114 67 l-23 34 0 838 0 839 562 0
c547 0 563 1 604 21 31 15 48 32 64 63 20 43 21 54 18 504 -3 447 -4 461 -24
488 -11 15 -33 37 -48 48 -27 21 -39 21 -602 24 l-574 2 0 41 c0 66 38 121 96
139 16 4 338 9 716 9 l687 1 3 -292z m-1782 -213 l0 -65 -90 0 -91 0 1 -257 1
-258 -70 -3 -71 -3 0 260 0 260 -87 3 -87 3 -3 49 c-2 27 -2 55 1 63 4 10 55
13 251 13 l245 0 0 -65z m273 -45 c29 -60 54 -110 57 -110 3 0 26 49 51 108
l46 107 83 3 c98 3 99 20 -11 -170 -43 -75 -79 -141 -79 -147 0 -5 41 -80 90
-165 50 -86 90 -158 90 -161 0 -3 -38 -5 -84 -5 l-83 0 -54 115 c-29 63 -56
111 -60 107 -4 -4 -28 -55 -54 -114 l-48 -108 -84 0 c-46 0 -82 3 -80 8 118
204 177 311 177 320 0 6 -38 78 -85 160 -47 83 -85 153 -85 156 0 3 36 6 81 6
l81 0 51 -110z m867 45 l0 -65 -90 0 -90 0 0 -260 0 -260 -70 0 -70 0 0 260 0
260 -90 0 -90 0 0 65 0 65 250 0 250 0 0 -65z"/>
<path d="M1435 1730 c-44 -18 -70 -59 -70 -111 0 -42 5 -53 33 -81 l32 -33
793 -3 c713 -3 795 -1 823 13 60 32 81 108 47 166 -36 61 -6 59 -860 58 -428
0 -787 -4 -798 -9z"/>
<path d="M1435 1250 c-44 -18 -70 -59 -70 -111 0 -42 5 -53 33 -81 l32 -33
791 -3 c693 -2 794 0 823 13 61 29 84 107 49 166 -36 61 -6 59 -860 58 -428 0
-787 -4 -798 -9z"/>
<path d="M1430 767 c-33 -16 -70 -73 -70 -107 0 -34 37 -91 70 -107 19 -10
201 -13 803 -13 854 0 824 -2 860 59 22 37 22 85 0 122 -36 61 -6 59 -860 59
-602 0 -784 -3 -803 -13z"/>
</g>
</svg>
